<?xml version="1.0" encoding="UTF-8"?>
<svg version="1.1" xmlns="http://www.w3.org/2000/svg" width="800" height="800">
<path d="M0 0 C1.020298 -0.00335861 2.04059601 -0.00671722 3.09181213 -0.01017761 C6.45729803 -0.0196591 9.82273401 -0.02162934 13.18823242 -0.02270508 C15.53464274 -0.02591967 17.88105287 -0.0292839 20.22746277 -0.03279114 C25.14415959 -0.03877545 30.06083885 -0.04063176 34.97753906 -0.04003906 C41.26535277 -0.0399375 47.55305341 -0.05358715 53.84084034 -0.07081127 C58.68711358 -0.08195168 63.53335966 -0.08395764 68.37964439 -0.08342934 C70.69718503 -0.08460647 73.01472643 -0.08901322 75.33225441 -0.0967617 C78.57965549 -0.1066024 81.82681342 -0.10366734 85.07421875 -0.09765625 C86.02361328 -0.10327576 86.97300781 -0.10889526 87.95117188 -0.11468506 C99.41444948 -0.06099757 108.22834561 2.49303982 117.00073242 10.11791992 C125.86556983 19.1801192 127.40060175 31.31445792 129.16918945 43.39282227 C129.48411268 45.54011572 129.815396 47.68442085 130.14916992 49.82885742 C131.03377393 55.64262955 131.78349254 61.25228418 131.73120117 67.14526367 C132.71518208 67.14374479 133.69916299 67.14222591 134.71296149 67.140661 C193.02482411 67.05100453 251.3366862 66.98251465 309.64860277 66.94100235 C316.64936161 66.93601308 323.65012029 66.93082686 330.65087891 66.92553711 C331.69585869 66.92475256 331.69585869 66.92475256 332.76194917 66.92395215 C355.33542806 66.90691205 377.90886685 66.87687077 400.48232145 66.84007479 C424.34082596 66.80125482 448.19930216 66.77727583 472.05783767 66.76890969 C486.3485056 66.76341981 500.63905842 66.74607707 514.92969092 66.7135978 C524.72779959 66.69246264 534.5258487 66.6860614 544.32397852 66.69125816 C549.97793919 66.69382146 555.63169861 66.68987732 561.28562355 66.66844177 C566.46440616 66.64895109 571.64285249 66.64801022 576.82165071 66.66166809 C578.69263489 66.66335568 580.56364022 66.658303 582.43458293 66.64573094 C595.12331686 66.56544257 606.28642042 66.90821606 615.94995117 76.23510742 C623.64643903 84.48857795 626.97315355 92.04158372 626.90224648 103.39785767 C626.62299937 107.88324934 625.43958203 111.9918336 624.16943359 116.28588867 C623.88768847 117.27849197 623.60594334 118.27109528 623.31566048 119.29377747 C622.35572454 122.66456633 621.37722059 126.02968997 620.39916992 129.39526367 C619.68970805 131.87332423 618.98160327 134.35177362 618.27470398 136.83056641 C616.88882551 141.68678207 615.49783874 146.54149228 614.10186821 151.3948164 C610.90922477 162.49693986 607.76007283 173.61120522 604.61645508 184.72729492 C599.54063632 202.67117794 594.44602267 220.60963303 589.3378315 238.54432678 C586.36751841 248.97393508 583.4016327 259.404762 580.44628906 269.83862305 C577.81953354 279.11239475 575.18491646 288.383889 572.54063195 297.65267849 C571.15507542 302.51028378 569.77327606 307.3688811 568.40099525 312.23025513 C567.12274694 316.75798282 565.83390102 321.28255838 564.53692055 325.80495453 C564.06580857 327.4545849 563.5985032 329.10530818 563.13541794 330.75720978 C559.11637778 345.07950858 554.78841208 356.79896276 541.52416992 364.84838867 C533.34581859 368.64588887 525.25637433 368.42519805 516.40588379 368.38577271 C514.94704886 368.38664564 513.48821423 368.38839825 512.02938128 368.39095104 C508.03406163 368.39541122 504.03884974 368.38743922 500.04354382 368.37739491 C495.73007913 368.36874351 491.41662033 368.37168177 487.10314941 368.37319946 C479.63421697 368.37424724 472.16531952 368.3679818 464.69639587 368.35672379 C453.89764223 368.34045729 443.09890548 368.3352596 432.30014092 368.3327478 C414.77910454 368.32837251 397.2580868 368.31506788 379.73706055 368.29614258 C362.71883233 368.2777795 345.70060918 368.26362509 328.68237305 368.25512695 C327.63305239 368.25460151 326.58373174 368.25407606 325.50261348 368.25353469 C320.23838551 368.25092458 314.9741575 368.24839717 309.70992947 368.24591088 C266.05034046 368.22518353 222.39077178 368.1899625 178.73120117 368.14526367 C178.85648193 368.94261932 178.9817627 369.73997498 179.11083984 370.56149292 C180.2896529 378.06586762 181.46700825 385.57046886 182.64271545 393.07533073 C183.24724849 396.93389285 183.85235028 400.792364 184.45874023 404.65063477 C185.04361858 408.37216894 185.62701812 412.09393216 186.2093811 415.81586075 C186.43212937 417.23774649 186.65541571 418.65954804 186.87924194 420.0812645 C187.19198477 422.06835881 187.50265916 424.05577833 187.81323242 426.04321289 C187.99088135 427.17572479 188.16853027 428.30823669 188.3515625 429.47506714 C188.73120117 432.14526367 188.73120117 432.14526367 188.73120117 434.14526367 C189.52648106 434.14336507 190.32176095 434.14146647 191.14114022 434.13951033 C238.28850135 434.02759065 285.43584801 433.94181607 332.58331539 433.88993702 C338.24589212 433.88368358 343.90846859 433.87721196 349.57104492 433.87060547 C350.69834958 433.86929392 351.82565424 433.86798236 352.98711964 433.86663107 C371.23405892 433.84488169 389.48091933 433.80546269 407.72781184 433.75949969 C426.45443037 433.71272212 445.18100763 433.68496551 463.90768218 433.6748212 C475.46064537 433.66796476 487.01338565 433.64631871 498.56628022 433.60568134 C506.49133342 433.57922697 514.41627158 433.57126881 522.34136572 433.57775678 C526.91200661 433.58095546 531.48225828 433.57609393 536.05282974 433.5492363 C540.24302116 433.52479444 544.43256391 433.52374634 548.62278602 433.5407692 C550.13309687 433.54287115 551.64344922 433.53662111 553.15367916 433.52084776 C564.92589108 433.40511307 574.60301189 435.25556741 583.73120117 443.14526367 C590.62295915 451.51481344 594.37287793 459.91041198 593.52026367 470.85229492 C591.95297616 481.42409273 587.13113505 489.52464697 578.73120117 496.14526367 C569.35129821 501.63304428 560.15147405 501.85566664 549.64512634 501.77345276 C547.9349344 501.77850548 546.22474776 501.7857399 544.51457316 501.7949509 C539.84249042 501.81379671 535.17093452 501.80168294 530.49886549 501.78422797 C525.44971158 501.77081598 520.40063282 501.78630473 515.35148621 501.79804993 C505.47131805 501.8164019 495.59134803 501.80793065 485.7111861 501.7899617 C477.67999226 501.77592083 469.64885211 501.77204611 461.61764717 501.77540398 C459.90135059 501.77612014 459.90135059 501.77612014 458.15038135 501.77685077 C455.82578478 501.77787713 453.50118824 501.77893249 451.1765917 501.78001653 C430.63445254 501.78857856 410.09240889 501.77192429 389.55029297 501.7421875 C369.62740061 501.71334758 349.7046458 501.70626902 329.78173828 501.72167969 C308.07372901 501.73844823 286.36578501 501.74246966 264.65777403 501.72496933 C262.3421625 501.72312498 260.02655096 501.72129026 257.71093941 501.71946526 C256.00205846 501.71809712 256.00205846 501.71809712 254.25865467 501.71670135 C246.23861213 501.71110032 238.21860151 501.71439907 230.19856071 501.72101021 C220.4227411 501.72874896 210.64705678 501.72197106 200.87126439 501.69683517 C195.88556971 501.68435326 190.90008553 501.67817784 185.91438293 501.68937683 C181.34666892 501.69944307 176.77937404 501.69090885 172.21171088 501.66779565 C170.56317041 501.66265125 168.91459216 501.66417123 167.26606833 501.6731903 C156.42590117 501.7275436 145.43100939 501.3013042 136.91870117 493.64526367 C127.76377535 484.4573321 125.51163898 473.11061482 123.72579956 460.77052307 C123.48048367 459.18194387 123.23328348 457.59365467 122.98433578 456.00564057 C122.46929574 452.69914269 121.96580267 449.39119989 121.47209311 446.0814507 C120.76886404 441.37339448 120.03454376 436.67068255 119.29056168 431.96891594 C117.91044822 423.22593675 116.56059164 414.4784537 115.21585703 405.72997224 C114.52227466 401.22105379 113.82608148 396.71253824 113.13026428 392.20396423 C111.77766155 383.43704406 110.42739332 374.66976599 109.07803722 365.90234559 C107.98200144 358.78116071 106.88508286 351.66011231 105.78756332 344.53915596 C105.63018067 343.51801611 105.47279802 342.49687625 105.3106462 341.44479277 C104.99078831 339.36949489 104.67092851 337.29419732 104.35106681 335.21890003 C101.37168001 315.88764108 98.39498968 296.5559677 95.41925822 277.22414578 C92.86653111 260.64079864 90.31142761 244.05781902 87.75463867 227.47509766 C84.77535937 208.15219831 81.79753964 188.82907497 78.8220576 169.5055905 C78.50535515 167.44887708 78.18865077 165.39216395 77.87194443 163.33545113 C77.71616007 162.32377202 77.56037571 161.31209291 77.39987061 160.26975686 C76.30207542 153.14124087 75.20322986 146.01288725 74.1039772 138.88459587 C72.76837772 130.22349024 71.43437244 121.5621409 70.10244389 112.90046995 C69.42304917 108.48256564 68.7429222 104.06477729 68.06085014 99.64728546 C67.43740927 95.60938811 66.81603249 91.57117888 66.1963421 87.5327043 C65.9712015 86.0679355 65.74529017 84.60328493 65.51855351 83.13876235 C65.21184054 81.15691951 64.90814862 79.17460983 64.60463142 77.19227505 C64.43473139 76.08895665 64.26483135 74.98563825 64.08978283 73.84888595 C63.73120117 71.14526367 63.73120117 71.14526367 63.73120117 68.14526367 C62.81380157 68.15192551 61.89640198 68.15858734 60.95120239 68.16545105 C52.27182046 68.22576136 43.59250973 68.27133892 34.91296577 68.30070019 C30.45156989 68.31630297 25.99034833 68.33744182 21.52905273 68.37158203 C17.21722596 68.40436894 12.90556601 68.42215713 8.59362411 68.4298954 C6.95512138 68.43540442 5.31662695 68.44616152 3.67819595 68.46245384 C-9.42937091 68.5875155 -21.16043401 67.72301975 -31.17895508 58.36010742 C-38.68672481 50.34225567 -41.37146109 42.08612737 -41.26879883 31.14526367 C-40.58544237 22.1598532 -35.97358738 14.35826974 -29.45629883 8.27026367 C-20.47842194 0.99183193 -11.19127269 -0.00530811 0 0 Z M142.73120117 135.14526367 C143.99109088 145.8543262 145.3088731 156.47895847 146.96191406 167.12280273 C147.17758669 168.52600772 147.39299675 169.92925308 147.60816956 171.33253479 C148.18389118 175.08216724 148.76328908 178.83122256 149.34349751 182.580163 C149.95366319 186.52657537 150.56052963 190.47349522 151.16783142 194.42034912 C152.18538339 201.03030211 153.2051935 207.63990337 154.2265625 214.24926758 C155.40604168 221.88185759 156.58263197 229.51488838 157.75754744 237.14818215 C159.01355427 245.30828927 160.27128121 253.46813048 161.52971339 261.62786388 C161.89077533 263.96961337 162.25155676 266.31140594 162.61229134 268.65320587 C163.17838449 272.32740864 163.74565977 276.00142705 164.3138485 279.67530632 C164.6209168 281.66243721 164.9268993 283.64973578 165.23284912 285.63703918 C165.41644485 286.82256882 165.60004059 288.00809845 165.78919983 289.22955322 C165.94791596 290.25739552 166.1066321 291.28523781 166.27015781 292.34422684 C166.69982838 294.95466044 167.21236444 297.55108002 167.73120117 300.14526367 C277.62120117 300.14526367 387.51120117 300.14526367 500.73120117 300.14526367 C504.34046264 288.71593567 507.9068861 277.32392439 511.17602539 265.80126953 C511.5806227 264.3829471 511.98545115 262.96469059 512.39048767 261.54649353 C513.46905676 257.76732559 514.54427776 253.98721342 515.61865759 250.20685267 C516.75005735 246.22756111 517.8841797 242.24904537 519.01785278 238.270401 C520.9141629 231.6136016 522.8082139 224.95616259 524.70092773 218.29833984 C526.88927728 210.60071486 529.08153938 202.90421199 531.27576625 195.20826048 C533.39469641 187.77598649 535.51067411 180.34287497 537.62537003 172.90939522 C538.52308537 169.75403904 539.42188294 166.59899412 540.32155991 163.4441967 C541.3762547 159.74537598 542.4283858 156.04583571 543.47850227 152.34571266 C543.86460107 150.98688907 544.25160377 149.62832195 544.63955879 148.27002716 C545.16715348 146.42228186 545.69120796 144.57352679 546.21505737 142.72471619 C546.50961256 141.68933181 546.80416775 140.65394743 547.10764885 139.58718777 C547.81367248 137.24234036 547.81367248 137.24234036 547.73120117 135.14526367 C414.08120117 135.14526367 280.43120117 135.14526367 142.73120117 135.14526367 Z " fill="#FFFFFF" transform="translate(107.268798828125,65.854736328125)"/>
<path d="M0 0 C1.31677734 0.38478516 1.31677734 0.38478516 2.66015625 0.77734375 C19.9299715 6.43679094 33.42972478 18.77145296 41.6875 34.75 C49.42473453 50.38926861 51.02916941 67.76967282 45.92578125 84.52734375 C38.70184376 104.05704227 26.95699028 117.88390517 7.84765625 126.78515625 C-8.932696 133.94385248 -27.11154348 133.2929608 -44.1640625 127.18359375 C-62.12622495 119.68698876 -74.51521425 105.70619629 -82 88 C-88.07585037 71.7423535 -87.03728631 53.88753115 -80.3984375 38.01953125 C-74.48859075 25.2588845 -65.46973118 13.85293052 -53 7 C-52.18660156 6.55140625 -51.37320313 6.1028125 -50.53515625 5.640625 C-35.21153685 -2.38715712 -16.80402001 -4.95902783 0 0 Z " fill="#FFFFFF" transform="translate(652,602)"/>
<path d="M0 0 C13.56201916 10.63043918 25.05741331 25.38607404 27.24609375 42.97802734 C29.37385436 63.90567278 25.09741186 81.57336458 12.125 98.4375 C1.81006237 110.74887717 -13.96669806 119.57030076 -29.9453125 121.46875 C-38.87254055 122.25317197 -47.21034497 121.96765736 -56 120 C-56.85851562 119.81566406 -57.71703125 119.63132812 -58.6015625 119.44140625 C-73.72757793 115.57586897 -87.7385334 104.13871796 -96 91 C-96.76570312 89.824375 -96.76570312 89.824375 -97.546875 88.625 C-106.73944535 73.33438794 -108.53951193 54.81420384 -104.375 37.625 C-99.64040222 20.22943838 -89.33520018 6.44396492 -74 -3 C-73.22398437 -3.47953125 -72.44796875 -3.9590625 -71.6484375 -4.453125 C-49.35612116 -16.82946116 -20.48545104 -14.90563885 0 0 Z " fill="#FFFFFF" transform="translate(306,612)"/>
</svg>
