<?xml version="1.0" encoding="UTF-8"?>
<svg version="1.1" xmlns="http://www.w3.org/2000/svg" width="800" height="800">
<path d="M0 0 C1.18865662 0.00182281 2.37731323 0.00364563 3.60198975 0.00552368 C21.42642752 0.05150387 38.86346109 0.54512957 56.5 3.3125 C57.61165527 3.47878906 58.72331055 3.64507812 59.86865234 3.81640625 C150.83346613 17.69827694 233.29271754 62.11063423 310.5 146.3125 C311.40299543 147.41436341 312.30807523 148.51452078 313.21484375 149.61328125 C325.25480703 164.28441504 336.10743019 179.81865766 345.5 196.3125 C345.86931641 196.95638672 346.23863281 197.60027344 346.61914062 198.26367188 C348.92480433 202.28974564 351.19314962 206.33485831 353.43554688 210.39648438 C354.41687013 212.16286624 355.41846439 213.91794588 356.421875 215.671875 C379.54822385 257.14640145 392.81874027 305.36324795 398.5 352.3125 C398.5921579 353.0668634 398.6843158 353.82122681 398.77926636 354.59844971 C400.56130806 369.66974727 400.86084415 384.64780051 400.8125 399.8125 C400.80976578 401.59548492 400.80976578 401.59548492 400.80697632 403.41448975 C400.76099613 421.23892752 400.26737043 438.67596109 397.5 456.3125 C397.25056641 457.97998291 397.25056641 457.97998291 396.99609375 459.68115234 C383.11422306 550.64596613 338.70186577 633.10521754 254.5 710.3125 C253.39813659 711.21549543 252.29797922 712.12057523 251.19921875 713.02734375 C236.52808496 725.06730703 220.99384234 735.91993019 204.5 745.3125 C203.85611328 745.68181641 203.21222656 746.05113281 202.54882812 746.43164062 C198.52275436 748.73730433 194.47764169 751.00564962 190.41601562 753.24804688 C188.64963376 754.22937013 186.89455412 755.23096439 185.140625 756.234375 C143.66609855 779.36072385 95.44925205 792.63124027 48.5 798.3125 C47.7456366 798.4046579 46.99127319 798.4968158 46.21405029 798.59176636 C31.14275273 800.37380806 16.16469949 800.67334415 1 800.625 C-0.18865662 800.62317719 -1.37731323 800.62135437 -2.60198975 800.61947632 C-20.42642752 800.57349613 -37.86346109 800.07987043 -55.5 797.3125 C-57.16748291 797.06306641 -57.16748291 797.06306641 -58.86865234 796.80859375 C-149.83346613 782.92672306 -232.29271754 738.51436577 -309.5 654.3125 C-310.40299543 653.21063659 -311.30807523 652.11047922 -312.21484375 651.01171875 C-324.25480703 636.34058496 -335.10743019 620.80634234 -344.5 604.3125 C-344.86931641 603.66861328 -345.23863281 603.02472656 -345.61914062 602.36132812 C-347.92480433 598.33525436 -350.19314962 594.29014169 -352.43554688 590.22851562 C-353.41687013 588.46213376 -354.41846439 586.70705412 -355.421875 584.953125 C-378.54822385 543.47859855 -391.81874027 495.26175205 -397.5 448.3125 C-397.63823685 447.1809549 -397.63823685 447.1809549 -397.77926636 446.02655029 C-399.56130806 430.95525273 -399.86084415 415.97719949 -399.8125 400.8125 C-399.81067719 399.62384338 -399.80885437 398.43518677 -399.80697632 397.21051025 C-399.76099613 379.38607248 -399.26737043 361.94903891 -396.5 344.3125 C-396.33371094 343.20084473 -396.16742188 342.08918945 -395.99609375 340.94384766 C-382.11422306 249.97903387 -337.70186577 167.51978246 -253.5 90.3125 C-252.39813659 89.40950457 -251.29797922 88.50442477 -250.19921875 87.59765625 C-235.52808496 75.55769297 -219.99384234 64.70506981 -203.5 55.3125 C-202.85611328 54.94318359 -202.21222656 54.57386719 -201.54882812 54.19335938 C-197.52275436 51.88769567 -193.47764169 49.61935038 -189.41601562 47.37695312 C-187.64963376 46.39562987 -185.89455412 45.39403561 -184.140625 44.390625 C-142.66609855 21.26427615 -94.44925205 7.99375973 -47.5 2.3125 C-46.3684549 2.17426315 -46.3684549 2.17426315 -45.21405029 2.03323364 C-30.14275273 0.25119194 -15.16469949 -0.04834415 0 0 Z M-52.5 54.3125 C-53.55300293 54.47878906 -54.60600586 54.64507812 -55.69091797 54.81640625 C-111.89324285 63.95637175 -165.25365214 86.77942476 -210.5 121.3125 C-211.08056152 121.74884766 -211.66112305 122.18519531 -212.25927734 122.63476562 C-220.62805042 128.93058265 -228.35640953 135.72245774 -235.9296875 142.953125 C-238.38672654 145.29589109 -240.90387228 147.53961871 -243.48046875 149.75 C-247.55850028 153.29294973 -251.26775615 157.10253205 -254.9375 161.0625 C-255.91734863 162.1151001 -255.91734863 162.1151001 -256.91699219 163.18896484 C-262.02207805 168.71293604 -266.8473717 174.40171995 -271.5 180.3125 C-272.32371094 181.31796875 -273.14742188 182.3234375 -273.99609375 183.359375 C-286.35066991 198.54350365 -296.81401114 215.12740024 -306.32421875 232.21191406 C-307.36250218 234.06685397 -308.42915372 235.90585344 -309.5 237.7421875 C-331.08152506 275.95947146 -342.29809124 320.05266443 -347.5 363.3125 C-347.6045752 364.17246582 -347.70915039 365.03243164 -347.81689453 365.91845703 C-348.94563193 376.99785257 -348.74397694 388.18841048 -348.75 399.3125 C-348.75067474 400.42987549 -348.75134949 401.54725098 -348.75204468 402.69848633 C-348.73568806 419.7546132 -348.24702589 436.4437062 -345.5 453.3125 C-345.33371094 454.36550293 -345.16742188 455.41850586 -344.99609375 456.50341797 C-335.14424052 517.08319327 -309.41127271 573.92771232 -270.5 621.3125 C-268.5012642 618.3143963 -267.89980207 616.41476329 -267.08984375 612.95703125 C-266.82727783 611.87212402 -266.56471191 610.7872168 -266.29418945 609.66943359 C-266.01148193 608.49977051 -265.72877441 607.33010742 -265.4375 606.125 C-255.60358096 567.11634254 -237.21629676 531.21839178 -211.5 500.3125 C-211.08057129 499.80283691 -210.66114258 499.29317383 -210.22900391 498.76806641 C-199.18707425 485.38905332 -187.26582168 472.91687969 -173.5 462.3125 C-172.23641473 461.30930428 -170.97343816 460.30534158 -169.7109375 459.30078125 C-148.70806586 442.739297 -125.39981556 429.15159523 -100.5 419.3125 C-103.60116352 416.12885873 -106.74013448 413.22416033 -110.25 410.5 C-113.61939284 407.83152098 -116.94473262 405.13398478 -120.1875 402.3125 C-121.18330078 401.44625 -121.18330078 401.44625 -122.19921875 400.5625 C-149.83695279 373.53476688 -166.11447502 338.03939624 -172.5 300.3125 C-172.6750708 299.40298584 -172.8501416 298.49347168 -173.03051758 297.55639648 C-173.58008072 293.75918096 -173.69855903 290.01608884 -173.73828125 286.1875 C-173.75297203 285.0240657 -173.75297203 285.0240657 -173.76795959 283.83712769 C-173.9370215 266.96607478 -173.8753312 250.7290866 -169.5 234.3125 C-169.28037598 233.46107422 -169.06075195 232.60964844 -168.83447266 231.73242188 C-165.78081597 220.12290757 -161.76122852 209.09871256 -156.5 198.3125 C-156.19336426 197.68005371 -155.88672852 197.04760742 -155.57080078 196.39599609 C-135.31545243 155.2027708 -98.39406605 124.31615567 -55.1875 109.5625 C-45.13505699 106.24106521 -34.92671537 104.07729006 -24.5 102.3125 C-23.59048584 102.1374292 -22.68097168 101.9623584 -21.74389648 101.78198242 C-17.94668096 101.23241928 -14.20358884 101.11394097 -10.375 101.07421875 C-9.2115657 101.05952797 -9.2115657 101.05952797 -8.02462769 101.04454041 C8.84642522 100.8754785 25.0834134 100.9371688 41.5 105.3125 C42.77713867 105.64193604 42.77713867 105.64193604 44.08007812 105.97802734 C55.68959243 109.03168403 66.71378744 113.05127148 77.5 118.3125 C78.13244629 118.61913574 78.76489258 118.92577148 79.41650391 119.24169922 C120.6097292 139.49704757 151.49634433 176.41843395 166.25 219.625 C169.57143479 229.67744301 171.73520994 239.88578463 173.5 250.3125 C173.6750708 251.22201416 173.8501416 252.13152832 174.03051758 253.06860352 C174.58008072 256.86581904 174.69855903 260.60891116 174.73828125 264.4375 C174.75297203 265.6009343 174.75297203 265.6009343 174.76795959 266.78787231 C174.9370215 283.65892522 174.8753312 299.8959134 170.5 316.3125 C170.17056396 317.58963867 170.17056396 317.58963867 169.83447266 318.89257812 C166.78081597 330.50209243 162.76122852 341.52628744 157.5 352.3125 C157.19336426 352.94494629 156.88672852 353.57739258 156.57080078 354.22900391 C143.72390242 380.35569249 124.26619434 400.6303294 101.5 418.3125 C103.53197606 420.34447606 104.8719074 421.04172062 107.47265625 422.16015625 C108.28081787 422.51295654 109.08897949 422.86575684 109.92163086 423.22924805 C110.79311768 423.60734619 111.66460449 423.98544434 112.5625 424.375 C134.90897099 434.30343744 155.59606868 446.71092212 174.5 462.3125 C175.07878906 462.78977539 175.65757812 463.26705078 176.25390625 463.75878906 C189.86603008 475.08055023 202.67749532 487.26352459 213.5 501.3125 C214.50319572 502.57608527 215.50715842 503.83906184 216.51171875 505.1015625 C243.79575678 539.70251614 260.04228089 578.76954923 270.5 621.3125 C286.02299936 606.7596881 297.06858413 586.83671439 307.32421875 568.41308594 C308.36250218 566.55814603 309.42915372 564.71914656 310.5 562.8828125 C332.08152506 524.66552854 343.29809124 480.57233557 348.5 437.3125 C348.6045752 436.45253418 348.70915039 435.59256836 348.81689453 434.70654297 C349.94563193 423.62714743 349.74397694 412.43658952 349.75 401.3125 C349.75067474 400.19512451 349.75134949 399.07774902 349.75204468 397.92651367 C349.73568806 380.8703868 349.24702589 364.1812938 346.5 347.3125 C346.25056641 345.73299561 346.25056641 345.73299561 345.99609375 344.12158203 C336.85612825 287.91925715 314.03307524 234.55884786 279.5 189.3125 C279.06365234 188.73193848 278.62730469 188.15137695 278.17773438 187.55322266 C271.88191735 179.18444958 265.09004226 171.45609047 257.859375 163.8828125 C255.51660891 161.42577346 253.27288129 158.90862772 251.0625 156.33203125 C247.51955027 152.25399972 243.70996795 148.54474385 239.75 144.875 C239.0482666 144.22176758 238.3465332 143.56853516 237.62353516 142.89550781 C232.09956396 137.79042195 226.41078005 132.9651283 220.5 128.3125 C218.99179688 127.07693359 218.99179688 127.07693359 217.453125 125.81640625 C202.26899635 113.46183009 185.68509976 102.99848886 168.60058594 93.48828125 C166.74564603 92.44999782 164.90664656 91.38334628 163.0703125 90.3125 C124.85302854 68.73097494 80.75983557 57.51440876 37.5 52.3125 C36.64003418 52.2079248 35.78006836 52.10334961 34.89404297 51.99560547 C23.81464743 50.86686807 12.62408952 51.06852306 1.5 51.0625 C0.38262451 51.06182526 -0.73475098 51.06115051 -1.88598633 51.06045532 C-18.9421132 51.07681194 -35.6312062 51.56547411 -52.5 54.3125 Z M-80.5 180.3125 C-81.65435547 181.25609375 -81.65435547 181.25609375 -82.83203125 182.21875 C-101.63471023 198.03744742 -114.02721774 220.90799815 -120.5 244.3125 C-121.01046875 246.11267578 -121.01046875 246.11267578 -121.53125 247.94921875 C-129.1516343 280.5828089 -121.8951474 315.14037486 -104.5 343.3125 C-101.43158204 347.86434097 -98.02051431 352.1054854 -94.5 356.3125 C-93.8709375 357.08207031 -93.241875 357.85164062 -92.59375 358.64453125 C-76.77505258 377.44721023 -53.90450185 389.83971774 -30.5 396.3125 C-29.29988281 396.6528125 -28.09976563 396.993125 -26.86328125 397.34375 C5.7703089 404.9641343 40.32787486 397.7076474 68.5 380.3125 C73.05184097 377.24408204 77.2929854 373.83301431 81.5 370.3125 C82.26957031 369.6834375 83.03914062 369.054375 83.83203125 368.40625 C102.63471023 352.58755258 115.02721774 329.71700185 121.5 306.3125 C121.8403125 305.11238281 122.180625 303.91226563 122.53125 302.67578125 C130.1516343 270.0421911 122.8951474 235.48462514 105.5 207.3125 C102.43158204 202.76065903 99.02051431 198.5195146 95.5 194.3125 C94.8709375 193.54292969 94.241875 192.77335937 93.59375 191.98046875 C77.77505258 173.17778977 54.90450185 160.78528226 31.5 154.3125 C30.29988281 153.9721875 29.09976563 153.631875 27.86328125 153.28125 C-10.37542916 144.35199438 -50.79309957 155.45316909 -80.5 180.3125 Z M-41.5 454.3125 C-42.32516113 454.47878906 -43.15032227 454.64507812 -44.00048828 454.81640625 C-103.96849868 466.99265202 -154.82899447 502.92242922 -188.625 553.4921875 C-190.66353775 556.72261224 -192.61347098 559.99192723 -194.5 563.3125 C-194.8904248 563.99763672 -195.28084961 564.68277344 -195.68310547 565.38867188 C-210.69909002 592.05509035 -220.19136531 621.74305181 -223.27075195 652.21118164 C-223.48518604 654.17671323 -223.78448732 656.13246524 -224.08984375 658.0859375 C-224.48262519 662.15497664 -224.45564717 665.32572525 -223.5 669.3125 C-220.11234949 673.40066629 -216.17988692 676.03671815 -211.72460938 678.86865234 C-209.38558315 680.38676045 -207.14009135 681.99689581 -204.890625 683.64453125 C-192.90901574 692.37210086 -180.38978008 700.01113782 -167.5 707.3125 C-166.79939453 707.71774902 -166.09878906 708.12299805 -165.37695312 708.54052734 C-126.23805387 731.11088658 -81.04250316 742.95635302 -36.5 748.3125 C-35.64003418 748.4170752 -34.78006836 748.52165039 -33.89404297 748.62939453 C-22.81464743 749.75813193 -11.62408952 749.55647694 -0.5 749.5625 C1.17606323 749.56351212 1.17606323 749.56351212 2.88598633 749.56454468 C19.9421132 749.54818806 36.6312062 749.05952589 53.5 746.3125 C54.55300293 746.14621094 55.60600586 745.97992187 56.69091797 745.80859375 C110.93908812 736.98642484 164.21369719 715.47063491 207.96484375 681.9453125 C210.34434289 680.128385 212.76536508 678.49585363 215.31640625 676.9296875 C221.88193269 672.79609754 221.88193269 672.79609754 225.41015625 666.08984375 C225.51073739 662.07097134 225.08965348 658.27235068 224.5 654.3125 C224.31499322 652.68144023 224.1341869 651.04989992 223.95703125 649.41796875 C217.2912861 592.69746475 188.52105909 537.37320089 143.47265625 501.59375 C133.48937782 493.93246931 123.46216044 486.54047185 112.5 480.3125 C111.81486328 479.9220752 111.12972656 479.53165039 110.42382812 479.12939453 C80.89884528 462.50373906 46.27459566 451.29545611 12.171875 451.109375 C11.30884262 451.10236069 10.44581024 451.09534637 9.55662537 451.08811951 C6.78769657 451.07071249 4.0189815 451.06426756 1.25 451.0625 C0.30492584 451.06182526 -0.64014832 451.06115051 -1.61386108 451.06045532 C-15.14048566 451.07582828 -28.23795892 451.42413264 -41.5 454.3125 Z " fill="#FFFFFF" transform="translate(399.5,-0.3125)"/>
</svg>
